<svg
  width="375"
  height="667"
  viewBox="0 0 375 667"
  fill="none"
  xmlns="http://www.w3.org/2000/svg"
>
  <rect width="375" height="667" fill="white" />
  <rect x="8" y="7" width="359" height="653" rx="31" fill="#EEEDED" />
  <rect x="14" y="14" width="344" height="187" rx="31" fill="#DCD9D9" />
  <circle cx="56.5" cy="335.5" r="34.5" fill="#90918F" />
  <circle cx="56.5" cy="424.5" r="34.5" fill="#90918F" />
  <circle cx="56.5" cy="513.5" r="34.5" fill="#90918F" />
  <circle cx="56.5" cy="602.5" r="34.5" fill="#90918F" />
  <circle cx="143.5" cy="602.5" r="34.5" fill="#90918F" />
  <rect x="59" y="568" width="88" height="69" fill="#90908F" />
  <circle cx="230.5" cy="602.5" r="34.5" fill="#90918F" />
  <circle cx="143.5" cy="513.5" r="34.5" fill="#90918F" />
  <circle cx="230.5" cy="513.5" r="34.5" fill="#90918F" />
  <circle cx="143.5" cy="424.5" r="34.5" fill="#90918F" />
  <circle cx="230.5" cy="424.5" r="34.5" fill="#90918F" />
  <circle cx="143.5" cy="335.5" r="34.5" fill="#90918F" />
  <circle cx="230.5" cy="335.5" r="34.5" fill="#90918F" />
  <circle cx="56.5" cy="246.5" r="34.5" fill="#EDD390" />
  <circle cx="143.5" cy="246.5" r="34.5" fill="#EDD390" />
  <circle cx="230.5" cy="246.5" r="34.5" fill="#EDD390" />
  <circle cx="317.5" cy="602.5" r="34.5" fill="#BC705F" />
  <circle cx="317.5" cy="513.5" r="34.5" fill="#BC705F" />
  <circle cx="317.5" cy="424.5" r="34.5" fill="#BC705F" />
  <circle cx="317.5" cy="335.5" r="34.5" fill="#BC705F" />
  <circle cx="317.5" cy="246.5" r="34.5" fill="#BC705F" />
  <path
    d="M47.2344 507.234V504C50.2812 503.703 52.4062 503.211 53.6094 502.523C54.8125 501.82 55.7109 500.172 56.3047 497.578H59.6328V531H55.1328V507.234H47.2344Z"
    fill="black"
  />
  <path
    d="M305.5 180C305.656 177.109 306.25 174.594 307.281 172.453C308.328 170.312 310.359 168.367 313.375 166.617L317.875 164.016C319.891 162.844 321.305 161.844 322.117 161.016C323.398 159.719 324.039 158.234 324.039 156.562C324.039 154.609 323.453 153.062 322.281 151.922C321.109 150.766 319.547 150.188 317.594 150.188C314.703 150.188 312.703 151.281 311.594 153.469C311 154.641 310.672 156.266 310.609 158.344H306.32C306.367 155.422 306.906 153.039 307.938 151.195C309.766 147.945 312.992 146.32 317.617 146.32C321.461 146.32 324.266 147.359 326.031 149.438C327.812 151.516 328.703 153.828 328.703 156.375C328.703 159.062 327.758 161.359 325.867 163.266C324.773 164.375 322.812 165.719 319.984 167.297L316.773 169.078C315.242 169.922 314.039 170.727 313.164 171.492C311.602 172.852 310.617 174.359 310.211 176.016H328.539V180H305.5Z"
    fill="black"
  />
  <path
    d="M229.109 531.914C225.141 531.914 222.258 530.828 220.461 528.656C218.68 526.469 217.789 523.812 217.789 520.688H222.195C222.383 522.859 222.789 524.438 223.414 525.422C224.508 527.188 226.484 528.07 229.344 528.07C231.562 528.07 233.344 527.477 234.688 526.289C236.031 525.102 236.703 523.57 236.703 521.695C236.703 519.383 235.992 517.766 234.57 516.844C233.164 515.922 231.203 515.461 228.688 515.461C228.406 515.461 228.117 515.469 227.82 515.484C227.539 515.484 227.25 515.492 226.953 515.508V511.781C227.391 511.828 227.758 511.859 228.055 511.875C228.352 511.891 228.672 511.898 229.016 511.898C230.594 511.898 231.891 511.648 232.906 511.148C234.688 510.273 235.578 508.711 235.578 506.461C235.578 504.789 234.984 503.5 233.797 502.594C232.609 501.688 231.227 501.234 229.648 501.234C226.836 501.234 224.891 502.172 223.812 504.047C223.219 505.078 222.883 506.547 222.805 508.453H218.633C218.633 505.953 219.133 503.828 220.133 502.078C221.852 498.953 224.875 497.391 229.203 497.391C232.625 497.391 235.273 498.156 237.148 499.688C239.023 501.203 239.961 503.406 239.961 506.297C239.961 508.359 239.406 510.031 238.297 511.312C237.609 512.109 236.719 512.734 235.625 513.188C237.391 513.672 238.766 514.609 239.75 516C240.75 517.375 241.25 519.062 241.25 521.062C241.25 524.266 240.195 526.875 238.086 528.891C235.977 530.906 232.984 531.914 229.109 531.914Z"
    fill="black"
  />
  <path
    d="M131.5 531C131.656 528.109 132.25 525.594 133.281 523.453C134.328 521.312 136.359 519.367 139.375 517.617L143.875 515.016C145.891 513.844 147.305 512.844 148.117 512.016C149.398 510.719 150.039 509.234 150.039 507.562C150.039 505.609 149.453 504.062 148.281 502.922C147.109 501.766 145.547 501.188 143.594 501.188C140.703 501.188 138.703 502.281 137.594 504.469C137 505.641 136.672 507.266 136.609 509.344H132.32C132.367 506.422 132.906 504.039 133.938 502.195C135.766 498.945 138.992 497.32 143.617 497.32C147.461 497.32 150.266 498.359 152.031 500.438C153.812 502.516 154.703 504.828 154.703 507.375C154.703 510.062 153.758 512.359 151.867 514.266C150.773 515.375 148.812 516.719 145.984 518.297L142.773 520.078C141.242 520.922 140.039 521.727 139.164 522.492C137.602 523.852 136.617 525.359 136.211 527.016H154.539V531H131.5Z"
    fill="black"
  />
  <path
    d="M305.156 515.734V511.797H315.375V501.508H319.383V511.797H329.602V515.734H319.383V526H315.375V515.734H305.156Z"
    fill="black"
  />
  <path
    d="M305.719 322.898H311.18L316.945 331.734L322.781 322.898L327.914 323.016L319.453 335.133L328.289 348H322.898L316.664 338.578L310.617 348H305.273L314.109 335.133L305.719 322.898Z"
    fill="black"
  />
  <path
    d="M321.258 228.57H324.82L313.898 263H310.336L321.258 228.57Z"
    fill="black"
  />
  <path
    d="M55.625 585.438C59.9688 585.438 63.1094 587.227 65.0469 590.805C66.5469 593.57 67.2969 597.359 67.2969 602.172C67.2969 606.734 66.6172 610.508 65.2578 613.492C63.2891 617.773 60.0703 619.914 55.6016 619.914C51.5703 619.914 48.5703 618.164 46.6016 614.664C44.9609 611.742 44.1406 607.82 44.1406 602.898C44.1406 599.086 44.6328 595.812 45.6172 593.078C47.4609 587.984 50.7969 585.438 55.625 585.438ZM55.5781 616.07C57.7656 616.07 59.5078 615.102 60.8047 613.164C62.1016 611.227 62.75 607.617 62.75 602.336C62.75 598.523 62.2812 595.391 61.3438 592.938C60.4062 590.469 58.5859 589.234 55.8828 589.234C53.3984 589.234 51.5781 590.406 50.4219 592.75C49.2812 595.078 48.7109 598.516 48.7109 603.062C48.7109 606.484 49.0781 609.234 49.8125 611.312C50.9375 614.484 52.8594 616.07 55.5781 616.07Z"
    fill="black"
  />
  <path
    d="M329.586 599.734V603.672H305.141V599.734H329.586ZM329.586 609.789V613.797H305.141V609.789H329.586Z"
    fill="black"
  />
  <path d="M227.422 613.891H232.32V619H227.422V613.891Z" fill="black" />
  <path
    d="M58.5078 431.117V415.906L47.75 431.117H58.5078ZM58.5781 443V434.797H43.8594V430.672L59.2344 409.344H62.7969V431.117H67.7422V434.797H62.7969V443H58.5781Z"
    fill="black"
  />
  <path
    d="M135.57 434.445C135.852 436.852 136.969 438.516 138.922 439.438C139.922 439.906 141.078 440.141 142.391 440.141C144.891 440.141 146.742 439.344 147.945 437.75C149.148 436.156 149.75 434.391 149.75 432.453C149.75 430.109 149.031 428.297 147.594 427.016C146.172 425.734 144.461 425.094 142.461 425.094C141.008 425.094 139.758 425.375 138.711 425.938C137.68 426.5 136.797 427.281 136.062 428.281L132.406 428.07L134.961 410H152.398V414.078H138.125L136.695 423.406C137.477 422.812 138.219 422.367 138.922 422.07C140.172 421.555 141.617 421.297 143.258 421.297C146.336 421.297 148.945 422.289 151.086 424.273C153.227 426.258 154.297 428.773 154.297 431.82C154.297 434.992 153.312 437.789 151.344 440.211C149.391 442.633 146.266 443.844 141.969 443.844C139.234 443.844 136.812 443.078 134.703 441.547C132.609 440 131.438 437.633 131.188 434.445H135.57Z"
    fill="black"
  />
  <path
    d="M230.68 409.297C234.43 409.297 237.039 410.273 238.508 412.227C239.992 414.164 240.734 416.164 240.734 418.227H236.562C236.312 416.898 235.914 415.859 235.367 415.109C234.352 413.703 232.812 413 230.75 413C228.391 413 226.516 414.094 225.125 416.281C223.734 418.453 222.961 421.57 222.805 425.633C223.773 424.211 224.992 423.148 226.461 422.445C227.805 421.82 229.305 421.508 230.961 421.508C233.773 421.508 236.227 422.406 238.32 424.203C240.414 426 241.461 428.68 241.461 432.242C241.461 435.289 240.469 437.992 238.484 440.352C236.5 442.695 233.672 443.867 230 443.867C226.859 443.867 224.148 442.68 221.867 440.305C219.586 437.914 218.445 433.898 218.445 428.258C218.445 424.086 218.953 420.547 219.969 417.641C221.922 412.078 225.492 409.297 230.68 409.297ZM230.375 440.117C232.594 440.117 234.25 439.375 235.344 437.891C236.453 436.391 237.008 434.625 237.008 432.594C237.008 430.875 236.516 429.242 235.531 427.695C234.547 426.133 232.758 425.352 230.164 425.352C228.352 425.352 226.758 425.953 225.383 427.156C224.023 428.359 223.344 430.172 223.344 432.594C223.344 434.719 223.961 436.508 225.195 437.961C226.445 439.398 228.172 440.117 230.375 440.117Z"
    fill="black"
  />
  <path d="M311.5 422.461H323.266V426.797H311.5V422.461Z" fill="black" />
  <path
    d="M67.7422 319V322.68C66.6641 323.727 65.2266 325.547 63.4297 328.141C61.6484 330.734 60.0703 333.531 58.6953 336.531C57.3359 339.453 56.3047 342.117 55.6016 344.523C55.1484 346.07 54.5625 348.562 53.8438 352H49.1797C50.2422 345.594 52.5859 339.219 56.2109 332.875C58.3516 329.156 60.6016 325.945 62.9609 323.242H44.3984V319H67.7422Z"
    fill="black"
  />
  <path
    d="M142.695 332.5C144.555 332.5 146.008 331.984 147.055 330.953C148.102 329.906 148.625 328.664 148.625 327.227C148.625 325.977 148.125 324.828 147.125 323.781C146.125 322.734 144.602 322.211 142.555 322.211C140.523 322.211 139.055 322.734 138.148 323.781C137.242 324.828 136.789 326.055 136.789 327.461C136.789 329.039 137.375 330.273 138.547 331.164C139.719 332.055 141.102 332.5 142.695 332.5ZM142.953 349.117C144.906 349.117 146.523 348.594 147.805 347.547C149.102 346.484 149.75 344.906 149.75 342.812C149.75 340.641 149.086 338.992 147.758 337.867C146.43 336.742 144.727 336.18 142.648 336.18C140.633 336.18 138.984 336.758 137.703 337.914C136.438 339.055 135.805 340.641 135.805 342.672C135.805 344.422 136.383 345.938 137.539 347.219C138.711 348.484 140.516 349.117 142.953 349.117ZM136.953 334.117C135.781 333.617 134.867 333.031 134.211 332.359C132.977 331.109 132.359 329.484 132.359 327.484C132.359 324.984 133.266 322.836 135.078 321.039C136.891 319.242 139.461 318.344 142.789 318.344C146.008 318.344 148.531 319.195 150.359 320.898C152.188 322.586 153.102 324.562 153.102 326.828C153.102 328.922 152.57 330.617 151.508 331.914C150.914 332.648 149.992 333.367 148.742 334.07C150.133 334.711 151.227 335.445 152.023 336.273C153.508 337.836 154.25 339.867 154.25 342.367C154.25 345.32 153.258 347.828 151.273 349.891C149.289 351.938 146.484 352.961 142.859 352.961C139.594 352.961 136.828 352.078 134.562 350.312C132.312 348.531 131.188 345.953 131.188 342.578C131.188 340.594 131.672 338.883 132.641 337.445C133.609 335.992 135.047 334.883 136.953 334.117Z"
    fill="black"
  />
  <path
    d="M223.016 343.891C223.141 346.219 224.039 347.828 225.711 348.719C226.57 349.188 227.539 349.422 228.617 349.422C230.633 349.422 232.352 348.586 233.773 346.914C235.195 345.227 236.203 341.812 236.797 336.672C235.859 338.156 234.695 339.203 233.305 339.812C231.93 340.406 230.445 340.703 228.852 340.703C225.617 340.703 223.055 339.695 221.164 337.68C219.289 335.664 218.352 333.07 218.352 329.898C218.352 326.852 219.281 324.172 221.141 321.859C223 319.547 225.742 318.391 229.367 318.391C234.258 318.391 237.633 320.594 239.492 325C240.523 327.422 241.039 330.453 241.039 334.094C241.039 338.203 240.422 341.844 239.188 345.016C237.141 350.297 233.672 352.938 228.781 352.938C225.5 352.938 223.008 352.078 221.305 350.359C219.602 348.641 218.75 346.484 218.75 343.891H223.016ZM229.414 337C231.086 337 232.609 336.453 233.984 335.359C235.375 334.25 236.07 332.32 236.07 329.57C236.07 327.102 235.445 325.266 234.195 324.062C232.961 322.844 231.383 322.234 229.461 322.234C227.398 322.234 225.758 322.93 224.539 324.32C223.336 325.695 222.734 327.539 222.734 329.852C222.734 332.039 223.266 333.781 224.328 335.078C225.391 336.359 227.086 337 229.414 337Z"
    fill="black"
  />
  <rect x="56" y="212" width="174" height="69" fill="#EDD390" />
  <path
    d="M146.773 233.172C149.602 233.172 151.898 233.859 153.664 235.234C155.445 236.609 156.516 238.977 156.875 242.336H152.773C152.523 240.789 151.953 239.508 151.062 238.492C150.172 237.461 148.742 236.945 146.773 236.945C144.086 236.945 142.164 238.258 141.008 240.883C140.258 242.586 139.883 244.688 139.883 247.188C139.883 249.703 140.414 251.82 141.477 253.539C142.539 255.258 144.211 256.117 146.492 256.117C148.242 256.117 149.625 255.586 150.641 254.523C151.672 253.445 152.383 251.977 152.773 250.117H156.875C156.406 253.445 155.234 255.883 153.359 257.43C151.484 258.961 149.086 259.727 146.164 259.727C142.883 259.727 140.266 258.531 138.312 256.141C136.359 253.734 135.383 250.734 135.383 247.141C135.383 242.734 136.453 239.305 138.594 236.852C140.734 234.398 143.461 233.172 146.773 233.172Z"
    fill="black"
  />
</svg>
